# File generated by ImageToStl.com - Free Image and 3D model conversion tools

mtllib Porygon.mtl

# Porygon_0
o obj1
v 7.51070008 27.27229628 -35.07580069
v 12.27649972 5.68749714 -40.04659994
v 1.80709995 53.22499279 -78.45780655
v 1.81799997 55.97799448 -75.27340477
v 12.27649972 5.66949758 -31.11020071
v 0 55.97799448 -75.27340477
v 0 27.27229628 -35.07580069
v 7.51070008 27.27229628 -35.07580069
v 1.81799997 55.97799448 -75.27340477
v -7.51070008 27.27229628 -35.07580069
v -1.81799997 55.97799448 -75.27340477
v 0 5.68749714 -40.04659994
v 0 53.22499279 -78.45780655
v -1.80709995 53.22499279 -78.45780655
v -12.27649972 5.68749714 -40.04659994
v 0 5.66949758 -31.11020071
v 12.27649972 5.66949758 -31.11020071
v -12.27649972 5.66949758 -31.11020071
v 0 55.97799448 -75.27340477
v 1.81799997 55.97799448 -75.27340477
v -1.81799997 55.97799448 -75.27340477
v -7.51070008 27.27229628 -35.07580069
v -1.81799997 55.97799448 -75.27340477
v -12.27649972 5.66949758 -31.11020071
v 10.1703003 59.30170095 36.26249581
v 6.29680008 43.40410319 50.90969473
v 7.30979964 42.48410241 49.53539647
v 13.40489984 55.21070013 32.86309719
v 13.85390013 43.229901 29.00559576
v 0 42.48410241 49.53539647
v 0 43.229901 29.00559576
v 13.85390013 43.229901 29.00559576
v 7.30979964 42.48410241 49.53539647
v -13.85390013 43.229901 29.00559576
v -7.30979964 42.48410241 49.53539647
v 0 43.40410319 50.90969473
v -6.29680008 43.40410319 50.90969473
v 0 59.30170095 36.26249581
v -10.1703003 59.30170095 36.26249581
v 11.54270023 67.51589961 24.64379457
v 10.1703003 59.30170095 36.26249581
v 13.40489984 55.21070013 32.86309719
v 15.31160027 60.70280238 21.64449532
v 20.16460001 53.18179643 -11.13560378
v 20.78589946 66.49919639 -14.48960508
v 17.48380065 67.45089911 3.02229499
v 17.74370074 57.98509793 10.0798958
v 18.01570058 43.70430232 15.94909696
v 13.85390013 43.229901 29.00559576
v 8.7274 80.00000032 -11.54210575
v 11.94439977 75.83469798 6.61659413
v 0 66.49919639 -14.48960508
v 0 80.00000032 -11.54210575
v 8.7274 80.00000032 -11.54210575
v 20.78589946 66.49919639 -14.48960508
v -8.7274 80.00000032 -11.54210575
v -20.78589946 66.49919639 -14.48960508
v 0 53.18179643 -11.13560378
v 20.16460001 53.18179643 -11.13560378
v -20.16460001 53.18179643 -11.13560378
v 0 73.82739897 15.13419488
v 0 67.51589961 24.64379457
v 8.69849995 73.82750029 15.13419488
v 0 59.30170095 36.26249581
v -11.54270023 67.51589961 24.64379457
v -8.69849995 73.82750029 15.13419488
v -10.1703003 59.30170095 36.26249581
v 0 75.83469798 6.61659413
v 11.94439977 75.83469798 6.61659413
v -11.94439977 75.83469798 6.61659413
v 13.85390013 43.229901 29.00559576
v 0 43.229901 29.00559576
v 0 43.70430232 15.94909696
v 18.01570058 43.70430232 15.94909696
v -13.85390013 43.229901 29.00559576
v -18.01570058 43.70430232 15.94909696
v -7.30979964 42.48410241 49.53539647
v -13.40489984 55.21070013 32.86309719
v -13.85390013 43.229901 29.00559576
v -13.40489984 55.21070013 32.86309719
v -15.31160027 60.70280238 21.64449532
v -17.48380065 67.45089911 3.02229499
v -20.78589946 66.49919639 -14.48960508
v -20.16460001 53.18179643 -11.13560378
v -17.74370074 57.98509793 10.0798958
v -18.01570058 43.70430232 15.94909696
v -13.85390013 43.229901 29.00559576
v -8.7274 80.00000032 -11.54210575
v -11.94439977 75.83469798 6.61659413
v 21.50889933 -1.03E-06 -13.62639964
v 21.50889933 1.55E-06 20.57749927
v 21.50889933 8.65440151 20.57989919
v 21.50889933 25.34779803 -13.62640155
v 21.50889933 -2.64E-06 -34.9999994
v 21.50889933 12.56729696 -35.00000035
v 39.63870108 5.90010143 20.58099911
v 21.50889933 8.65440151 20.57989919
v 39.63870108 1.55E-06 20.57749927
v 39.63870108 -2.64E-06 -34.9999994
v 39.63870108 7.84239728 -35
v 39.63870108 18.27349858 -13.62640102
v 39.63870108 -1.03E-06 -13.62639964
v 39.63870108 5.90010143 20.58099911
v 21.50889933 12.56729696 -35.00000035
v 39.63870108 7.84239728 -35
v 21.50889933 25.34779803 -13.62640155
v 21.50889933 8.65440151 20.57989919
v 21.50889933 12.56729696 -35.00000035
v -21.50889933 8.65440151 20.57989919
v -21.50889933 1.55E-06 20.57749927
v -21.50889933 -1.03E-06 -13.62639964
v -21.50889933 25.34779803 -13.62640155
v -21.50889933 -2.64E-06 -34.9999994
v -21.50889933 12.56729696 -35.00000035
v -21.50889933 8.65440151 20.57989919
v -39.63870108 5.90010143 20.58099911
v -39.63870108 1.55E-06 20.57749927
v -39.63870108 18.27349858 -13.62640102
v -39.63870108 7.84239728 -35
v -39.63870108 -2.64E-06 -34.9999994
v -39.63870108 -1.03E-06 -13.62639964
v -39.63870108 5.90010143 20.58099911
v -39.63870108 7.84239728 -35
v -21.50889933 12.56729696 -35.00000035
v -21.50889933 25.34779803 -13.62640155
v -21.50889933 8.65440151 20.57989919
v -21.50889933 12.56729696 -35.00000035
v 13.39019984 43.70430232 15.94909696
v 11.33320034 48.88580152 1.14149632
v 0 48.88580152 1.14149632
v 0 43.70430232 15.94909696
v -13.39019984 43.70430232 15.94909696
v -11.33320034 48.88580152 1.14149632
v 16.11959934 4.83659756 -30.97499944
v 21.50869966 23.00639787 -34.36860318
v 21.5091005 23.0064022 22.92979782
v 16.11959934 4.83660055 8.56419989
v 18.10470074 31.67600109 9.73429739
v 18.10470074 31.67599766 -35.76600195
v 11.33320034 48.88580152 1.14149632
v 13.39019984 43.70430232 15.94909696
v 0 4.83659756 -30.97499944
v 0 23.00639787 -34.36860318
v 21.50869966 23.00639787 -34.36860318
v 18.10470074 31.67599766 -35.76600195
v 0 31.67599766 -35.76600195
v -21.50869966 23.00639787 -34.36860318
v -16.11959934 4.83659756 -30.97499944
v -18.10470074 31.67599766 -35.76600195
v 0 4.83660055 8.56419989
v -16.11959934 4.83660055 8.56419989
v 0 48.88580152 1.14149632
v 11.33320034 48.88580152 1.14149632
v -11.33320034 48.88580152 1.14149632
v 21.5091005 23.0064022 22.92979782
v 18.10470074 31.67600109 9.73429739
v 13.39019984 43.70430232 15.94909696
v 0 23.0064022 22.92979782
v 0 4.83660055 8.56419989
v 16.11959934 4.83660055 8.56419989
v -16.11959934 4.83660055 8.56419989
v -21.5091005 23.0064022 22.92979782
v 0 43.70430232 15.94909696
v -13.39019984 43.70430232 15.94909696
v -21.5091005 23.0064022 22.92979782
v -21.50869966 23.00639787 -34.36860318
v -11.33320034 48.88580152 1.14149632
v -18.10470074 31.67599766 -35.76600195
v -18.10470074 31.67600109 9.73429739
v -13.39019984 43.70430232 15.94909696
v -18.10470074 31.67600109 9.73429739
v 11.94439977 75.83469798 6.61659413
v 11.54270023 67.51589961 24.64379457
v 15.31160027 60.70280238 21.64449532
v 17.48380065 67.45089911 3.02229499
v 17.74370074 57.98509793 10.0798958
v 8.69849995 73.82750029 15.13419488
v -15.31160027 60.70280238 21.64449532
v -11.54270023 67.51589961 24.64379457
v -11.94439977 75.83469798 6.61659413
v -17.48380065 67.45089911 3.02229499
v -17.74370074 57.98509793 10.0798958
v -8.69849995 73.82750029 15.13419488
vn 0.95078 0.29837 0.08356
vn 0.00397 -0.68329 -0.73013
vn 0.07519 0.66856 -0.73985
vn 0.97306 0.22638 -0.0437
vn 0.95079 0.29835 0.08353
vn 0.07518 0.6686 -0.73981
vn 0.0039 -0.68324 -0.73018
vn 0.95078 0.29838 0.08355
vn 0.97645 0.20953 0.05137
vn -0.00394 0.8561 0.51679
vn -0.00392 0.19308 0.98118
vn -0.00391 0.19308 0.98118
vn -0.00394 0.8561 0.51679
vn -0.00395 0.8561 0.51679
vn -0.0039 0.19307 0.98118
vn -0.14601 0.20918 0.96692
vn -0.00398 0.19308 0.98118
vn -0.00394 0.8561 0.51679
vn -0.01973 0.84088 0.54087
vn -0.14601 0.20918 0.96691
vn -0.00395 0.8561 0.51679
vn -0.00391 -0.6833 -0.73013
vn -0.00396 -0.52607 -0.85043
vn 0.07523 0.66861 -0.7398
vn 0.0039 -0.6833 -0.73013
vn -0.00391 -0.6833 -0.73013
vn 0.07517 0.66861 -0.7398
vn -0.13919 0.70418 -0.69624
vn -0.00395 -0.52607 -0.85043
vn -0.00391 -0.6833 -0.73013
vn -0.98393 0.17642 -0.02751
vn -0.13927 0.70418 -0.69623
vn -0.0039 -0.6833 -0.73013
vn -0.00397 0.06811 0.99767
vn -0.00395 -0.68328 -0.73014
vn 0.00385 -0.68328 -0.73014
vn -0.00406 0.06811 0.99767
vn -0.00406 0.06811 0.99767
vn 0.00385 -0.68328 -0.73014
vn -0.98393 0.17645 -0.02746
vn -0.00391 -0.68328 -0.73014
vn -0.00399 0.06811 0.99767
vn -0.34207 -0.08654 0.93568
vn -0.98393 0.17645 -0.02745
vn -0.00403 0.06811 0.99767
vn -0.00395 -0.52609 -0.85042
vn -0.00391 0.7562 -0.65433
vn 0.0039 0.75233 -0.65877
vn 0.07518 0.66859 -0.73983
vn -0.00391 -0.52609 -0.85042
vn 0.0039 0.75233 -0.65877
vn -0.0039 0.75233 -0.65877
vn -0.00391 0.7562 -0.65433
vn -0.00402 -0.52609 -0.85042
vn -0.13926 0.70417 -0.69624
vn -0.0039 0.75233 -0.65877
vn -0.00396 -0.52609 -0.85042
vn -0.00393 0.19306 0.98118
vn -0.004 0.06809 0.99767
vn -0.00401 0.06809 0.99767
vn -0.00393 0.19306 0.98118
vn -0.00393 0.19306 0.98118
vn -0.00401 0.06809 0.99767
vn -0.3421 -0.08658 0.93567
vn -0.00401 0.06809 0.99767
vn -0.00393 0.19306 0.98118
vn -0.14601 0.20917 0.96692
vn -0.34212 -0.08655 0.93566
vn -0.00393 0.19306 0.98118
vn -0.13925 0.70421 -0.6962
vn -0.98394 0.17638 -0.02745
vn -0.85588 0.45358 0.24847
vn -0.81569 0.50347 -0.2849
vn -0.13927 0.70422 -0.69619
vn -0.85587 0.45357 0.24849
vn -0.98394 0.17639 -0.02745
vn -0.96006 0.22336 0.16852
vn -0.85589 0.45355 0.2485
vn 0.07563 0.72855 0.6808
vn 0.02773 -0.67848 0.7341
vn 0.76664 -0.17689 0.61723
vn 0.86451 0.27237 0.42241
vn 0.07563 0.72855 0.68081
vn 0.76662 -0.17692 0.61724
vn 0.90219 -0.33489 0.27185
vn 0.86452 0.27241 0.42237
vn 0.76664 -0.17693 0.61722
vn -0.00392 -0.99962 -0.02745
vn -0.00393 -0.99906 -0.04311
vn 0.04309 -0.99869 -0.02742
vn -0.00392 -0.99962 -0.02745
vn -0.00392 -0.99962 -0.02745
vn 0.04309 -0.99869 -0.02742
vn -0.30168 -0.95205 0.05095
vn -0.00393 -0.99906 -0.04311
vn -0.00392 -0.99962 -0.02745
vn -0.12933 -0.99159 0.00392
vn -0.30169 -0.95205 0.05091
vn -0.00392 -0.99962 -0.02745
vn -0.00397 -0.68698 0.72666
vn -0.00389 -0.99962 -0.02742
vn -0.00391 -0.99962 -0.02742
vn 0.02777 -0.67852 0.73405
vn -0.00396 -0.68698 0.72667
vn -0.00388 -0.99962 -0.02742
vn -0.12936 -0.99159 0.00391
vn -0.00394 -0.99962 -0.02742
vn -0.00398 -0.68698 0.72666
vn -0.40447 -0.59112 0.69784
vn -0.12934 -0.99159 0.00391
vn -0.00396 -0.68698 0.72667
vn -0.00392 0.73404 0.6791
vn -0.00397 -0.68698 0.72667
vn 0.02771 -0.67851 0.73407
vn 0.07564 0.72856 0.68079
vn -0.00392 0.73404 0.6791
vn 0.02783 -0.6785 0.73407
vn -0.40443 -0.59115 0.69784
vn -0.00392 -0.68698 0.72667
vn -0.00392 0.73404 0.6791
vn -0.84577 0.29501 0.44456
vn -0.40444 -0.59115 0.69783
vn -0.00392 0.73404 0.6791
vn 0.7622 0.51232 0.39569
vn 0.76784 0.39386 0.50527
vn 0.86739 0.27329 0.41586
vn 0.91687 0.29769 0.26594
vn 0.76223 0.51229 0.39568
vn 0.86739 0.2733 0.41587
vn 0.94812 -0.20853 -0.23997
vn 0.94188 0.15503 -0.29806
vn 0.85317 0.50719 0.12192
vn 0.98807 0.08267 0.12991
vn 0.94811 -0.20853 -0.23999
vn 0.85319 0.50717 0.12187
vn 0.98368 -0.17779 0.02766
vn 0.94813 -0.20849 -0.23997
vn 0.98807 0.08267 0.12991
vn 0.98368 -0.17778 0.02767
vn 0.98807 0.08267 0.12991
vn 0.91688 0.29767 0.26593
vn 0.98368 -0.17777 0.02767
vn 0.91688 0.29768 0.26594
vn 0.8674 0.27326 0.41588
vn 0.90455 -0.32787 0.27255
vn 0.98369 -0.17776 0.02763
vn 0.86739 0.27328 0.41587
vn 0.85318 0.50718 0.12188
vn 0.94188 0.15498 -0.29806
vn 0.58902 0.73129 -0.3439
vn 0.8253 0.56468 -0.00394
vn 0.85318 0.50717 0.12189
vn 0.58899 0.7313 -0.34394
vn 0.00396 0.04346 -0.99905
vn -0.00394 0.26379 -0.96457
vn 0.05884 0.27064 -0.96088
vn 0.0278 0.07544 -0.99676
vn 0.00396 0.04346 -0.99905
vn 0.05884 0.27064 -0.96088
vn -0.07443 0.27032 -0.95989
vn -0.00393 0.26379 -0.96457
vn 0.00396 0.04346 -0.99905
vn -0.04366 0.07542 -0.9962
vn -0.07443 0.27033 -0.95989
vn 0.00395 0.04346 -0.99905
vn -0.00388 -0.93089 -0.36529
vn 0.00396 0.04346 -0.99905
vn 0.02777 0.07547 -0.99676
vn 0.02745 -0.93055 -0.36513
vn -0.00397 -0.93089 -0.36529
vn 0.0278 0.07546 -0.99676
vn -0.04365 0.07541 -0.9962
vn 0.00394 0.04346 -0.99905
vn -0.00388 -0.93089 -0.36529
vn -0.02745 -0.93055 -0.36513
vn -0.04367 0.07541 -0.9962
vn -0.00395 -0.93089 -0.36529
vn -0.00393 0.95025 0.31148
vn -0.00393 0.82779 0.56103
vn 0.76223 0.5123 0.39568
vn 0.0672 0.95268 0.29647
vn -0.00392 0.95024 0.31149
vn 0.76222 0.51228 0.39571
vn 0.76222 0.51232 0.39566
vn -0.00393 0.82781 0.561
vn 0.76784 0.39383 0.5053
vn -0.00393 0.82781 0.561
vn -0.00395 0.74543 0.66658
vn 0.76786 0.39389 0.50522
vn -0.76568 0.50907 0.39317
vn -0.00393 0.82779 0.56103
vn -0.00396 0.95024 0.31148
vn -0.08293 0.95155 0.29611
vn -0.76567 0.50907 0.39318
vn -0.00394 0.95024 0.31149
vn -0.76865 0.39812 0.50067
vn -0.00394 0.74543 0.66658
vn -0.00393 0.82781 0.561
vn -0.76566 0.50906 0.39323
vn -0.76866 0.39814 0.50065
vn -0.00393 0.82781 0.561
vn -0.00391 0.26379 -0.96457
vn -0.00393 0.97646 0.21566
vn 0.05111 0.97137 0.23202
vn 0.05886 0.27061 -0.96089
vn -0.00394 0.26379 -0.96457
vn 0.05111 0.97137 0.23203
vn 0.05113 0.97137 0.23202
vn -0.00392 0.97646 0.21568
vn 0.06719 0.95268 0.29647
vn -0.00392 0.97645 0.21569
vn -0.00394 0.95024 0.3115
vn 0.0672 0.95268 0.29647
vn -0.0668 0.97046 0.23181
vn -0.00393 0.97646 0.21566
vn -0.00393 0.26379 -0.96457
vn -0.07447 0.27033 -0.95988
vn -0.0668 0.97046 0.23181
vn -0.00395 0.26379 -0.96457
vn -0.08292 0.95154 0.29614
vn -0.00394 0.95024 0.3115
vn -0.00392 0.97645 0.2157
vn -0.0668 0.97046 0.23181
vn -0.08292 0.95154 0.29614
vn -0.00392 0.97646 0.21568
vn 0.01961 -0.99943 -0.02743
vn -0.00393 -0.99906 -0.04312
vn -0.00391 -0.99827 -0.05872
vn 0.03525 -0.99845 -0.04307
vn 0.01961 -0.99943 -0.02743
vn -0.00392 -0.99827 -0.05872
vn -0.00391 -0.99827 -0.05872
vn -0.00393 -0.99906 -0.04311
vn -0.03528 -0.999 -0.02742
vn -0.04308 -0.99814 -0.04306
vn -0.00391 -0.99827 -0.05872
vn -0.03528 -0.999 -0.02742
vn 0.03525 -0.99845 -0.04307
vn -0.00393 -0.99827 -0.0587
vn -0.00393 -0.93089 -0.36528
vn 0.02748 -0.93054 -0.36515
vn 0.03525 -0.99845 -0.04307
vn -0.00393 -0.93089 -0.36528
vn -0.00393 -0.93089 -0.36528
vn -0.00392 -0.99827 -0.0587
vn -0.04306 -0.99814 -0.04306
vn -0.02748 -0.93054 -0.36515
vn -0.00392 -0.93089 -0.36528
vn -0.04306 -0.99814 -0.04306
vn -0.79445 -0.27003 0.54399
vn -0.4045 -0.59117 0.69778
vn -0.84578 0.29505 0.44452
vn -0.96505 -0.01174 0.26179
vn -0.79443 -0.27004 0.54402
vn -0.84578 0.29503 0.44454
vn -0.95387 -0.05888 0.2944
vn -0.79444 -0.27003 0.544
vn -0.96506 -0.01171 0.26177
vn -0.87305 0.2623 0.41108
vn -0.76867 0.39814 0.50063
vn -0.76568 0.50905 0.39319
vn -0.92024 0.28833 0.26463
vn -0.87305 0.26233 0.41107
vn -0.76566 0.50908 0.39318
vn -0.8553 0.50378 0.1211
vn -0.9416 0.16154 -0.29546
vn -0.94891 -0.20698 -0.2382
vn -0.98826 0.08203 0.1289
vn -0.85528 0.50382 0.12107
vn -0.9489 -0.20698 -0.2382
vn -0.98527 -0.16877 0.02747
vn -0.98826 0.08203 0.1289
vn -0.9489 -0.207 -0.23819
vn -0.98527 -0.16879 0.02746
vn -0.92024 0.28831 0.26463
vn -0.98826 0.08202 0.12889
vn -0.87304 0.26232 0.41108
vn -0.92024 0.28832 0.26463
vn -0.98527 -0.16881 0.02747
vn -0.90738 -0.32321 0.2687
vn -0.87305 0.26229 0.41108
vn -0.98527 -0.1688 0.0275
vn -0.60918 0.71924 -0.33406
vn -0.9416 0.16153 -0.29547
vn -0.8553 0.50378 0.12107
vn -0.8278 0.56101 -0.00393
vn -0.60919 0.71924 -0.33404
vn -0.85529 0.5038 0.12108
vn -0.82368 -0.56703 -0.00417
vn -0.88728 -0.4581 0.05367
vn -0.99906 0.00392 0.0431
vn -0.99992 0.01178 0.00393
vn -0.82368 -0.56704 -0.00415
vn -0.99906 0.00392 0.0431
vn -0.34892 -0.01959 -0.93695
vn -0.82368 -0.56704 -0.0041
vn -0.99992 0.01178 0.00393
vn -0.86897 -0.00389 -0.49486
vn -0.34892 -0.01953 -0.93695
vn -0.99992 0.01178 0.00393
vn 0.11476 0.00397 0.99339
vn -0.31856 0.01181 0.94783
vn -0.8873 -0.45807 0.05364
vn 0.38608 -0.92082 0.05518
vn 0.11476 0.00396 0.99339
vn -0.8873 -0.45807 0.05363
vn 0.16227 -0.05142 -0.98541
vn 0.24921 0.66069 -0.70808
vn 0.36156 0.8861 0.29001
vn 0.33347 -0.94275 -0.00411
vn 0.16227 -0.05152 -0.9854
vn 0.36156 0.88608 0.29005
vn 0.38615 -0.92079 0.05514
vn 0.33347 -0.94275 -0.00416
vn 0.36156 0.88608 0.29007
vn 0.18587 0.89773 0.3994
vn 0.38615 -0.92078 0.0552
vn 0.36156 0.88607 0.29011
vn -0.34891 -0.01962 -0.93695
vn -0.24698 0.21561 -0.94473
vn 0.07447 0.10583 -0.99159
vn 0.16225 -0.05144 -0.98541
vn -0.34891 -0.0196 -0.93695
vn 0.07447 0.10583 -0.99159
vn 0.38616 -0.92078 0.05516
vn -0.88729 -0.45808 0.05362
vn -0.82367 -0.56705 -0.00413
vn 0.33344 -0.94276 -0.00411
vn 0.38616 -0.92078 0.05517
vn -0.82367 -0.56705 -0.00419
vn -0.82367 -0.56705 -0.00419
vn -0.34885 -0.01961 -0.93697
vn 0.33344 -0.94276 -0.00412
vn -0.34885 -0.01961 -0.93697
vn 0.16224 -0.05146 -0.98541
vn 0.33344 -0.94276 -0.00412
vn -0.06296 0.99482 0.07978
vn -0.30526 0.84447 0.44009
vn 0.18586 0.89772 0.39944
vn -0.06295 0.99483 0.07975
vn 0.18589 0.89773 0.39941
vn 0.36157 0.88607 0.29008
vn -0.06294 0.99483 0.07975
vn 0.24925 0.66063 -0.70813
vn -0.1371 0.63065 -0.76386
vn 0.36156 0.88609 0.29004
vn 0.24923 0.66066 -0.7081
vn -0.06298 0.99483 0.07971
vn 0.99905 0.00395 0.04343
vn 0.88889 -0.4549 0.05423
vn 0.85373 -0.52057 -0.01246
vn 0.99973 0.01186 -0.01977
vn 0.99905 0.00395 0.04343
vn 0.85373 -0.52057 -0.01248
vn 0.99973 0.01186 -0.01977
vn 0.85373 -0.52057 -0.01253
vn 0.88847 -0.45465 -0.0626
vn 0.99867 0.00394 -0.05131
vn 0.99973 0.01186 -0.01977
vn 0.88847 -0.45465 -0.06254
vn 0.88888 -0.45492 0.05426
vn 0.30434 0.01186 0.95249
vn -0.12257 0.00395 0.99245
vn -0.39335 -0.91774 0.05499
vn 0.88893 -0.45482 0.05426
vn -0.12257 0.00395 0.99245
vn -0.35897 0.8403 -0.40626
vn -0.2794 0.8382 -0.46835
vn -0.36576 -0.9291 -0.05471
vn -0.33342 -0.9427 -0.01238
vn -0.35897 0.84025 -0.40636
vn -0.36576 -0.92911 -0.05461
vn -0.35897 0.84026 -0.40633
vn -0.33342 -0.9427 -0.01229
vn -0.39334 -0.91775 0.05496
vn -0.20106 0.895 0.39819
vn -0.35897 0.84023 -0.40639
vn -0.39334 -0.91774 0.05502
vn -0.08224 0.10575 -0.99099
vn 0.23216 0.2164 -0.9483
vn 0.88848 -0.45463 -0.06257
vn -0.36574 -0.92911 -0.05467
vn -0.08225 0.10575 -0.99099
vn 0.88847 -0.45465 -0.06257
vn 0.85374 -0.52056 -0.01244
vn 0.8889 -0.45488 0.05423
vn -0.39331 -0.91776 0.05497
vn -0.33342 -0.9427 -0.01236
vn 0.85374 -0.52056 -0.01247
vn -0.3933 -0.91776 0.05499
vn 0.85374 -0.52056 -0.01244
vn -0.33342 -0.9427 -0.01234
vn 0.88846 -0.45467 -0.06251
vn -0.33342 -0.9427 -0.01236
vn -0.36575 -0.92911 -0.05467
vn 0.88846 -0.45467 -0.06255
vn -0.28661 0.83638 -0.46726
vn -0.35897 0.84026 -0.40633
vn -0.20109 0.89499 0.3982
vn -0.28658 0.83637 -0.46728
vn -0.20108 0.89499 0.3982
vn -0.1144 0.87971 0.46155
vn -0.35899 0.84026 -0.40632
vn -0.28665 0.83637 -0.46725
vn -0.2794 0.83823 -0.46831
vn -0.27942 0.83823 -0.4683
vn -0.28663 0.83636 -0.46727
vn -0.20032 0.82881 -0.52244
vn 0.2878 0.90287 0.31937
vn 0.10676 0.97676 0.18586
vn -0.00394 0.98118 0.19306
vn -0.00394 0.93966 0.34208
vn 0.2878 0.90288 0.31934
vn -0.00394 0.98118 0.19306
vn -0.00394 0.93966 0.34208
vn -0.00393 0.98118 0.19306
vn -0.29711 0.8993 0.32091
vn -0.00395 0.98118 0.19306
vn -0.13013 0.97402 0.18536
vn -0.29711 0.8993 0.32092
vn 0.83515 -0.35563 -0.41959
vn 0.83601 -0.02797 -0.54799
vn 0.93839 -0.10687 0.32863
vn 0.94789 -0.31858 0.00393
vn 0.83515 -0.35562 -0.41959
vn 0.93839 -0.10689 0.32864
vn 0.93354 0.35844 -0.00394
vn 0.81998 0.3129 -0.4793
vn 0.74768 0.66064 0.06727
vn 0.84893 0.52517 0.05924
vn 0.93353 0.35846 -0.00393
vn 0.74768 0.66065 0.06723
vn 0.836 -0.02801 -0.54802
vn 0.81995 0.31296 -0.47931
vn 0.93354 0.35846 -0.00393
vn 0.93838 -0.1069 0.32867
vn 0.83598 -0.02796 -0.54804
vn 0.93354 0.35844 -0.00394
vn -0.00414 -0.70292 -0.71126
vn -0.00392 -0.17646 -0.9843
vn 0.41373 -0.16947 -0.89449
vn 0.83515 -0.35563 -0.41958
vn -0.00418 -0.70292 -0.71126
vn 0.41373 -0.16945 -0.89449
vn 0.41373 -0.16944 -0.89449
vn -0.00392 -0.17647 -0.9843
vn 0.31854 0.68257 -0.65775
vn -0.00392 -0.17647 -0.9843
vn -0.00405 0.84235 -0.53892
vn 0.31849 0.68259 -0.65775
vn -0.00392 -0.17646 -0.9843
vn -0.00392 -0.17646 -0.9843
vn -0.0042 -0.70292 -0.71126
vn -0.02076 -0.70279 -0.71109
vn -0.00392 -0.17646 -0.9843
vn -0.00412 -0.70292 -0.71126
vn -0.0119 0.84228 -0.53891
vn -0.004 0.84235 -0.53892
vn -0.00392 -0.17647 -0.9843
vn -0.00392 -0.17647 -0.9843
vn -0.012 0.84228 -0.53891
vn -0.00392 -0.17647 -0.9843
vn 0.00392 -0.99937 0.03525
vn -0.00416 -0.70294 -0.71123
vn 0.83515 -0.35565 -0.41956
vn 0.94788 -0.3186 0.00391
vn 0.00392 -0.99937 0.03525
vn 0.83514 -0.35565 -0.41959
vn -0.02079 -0.70277 -0.71111
vn -0.00413 -0.70294 -0.71124
vn 0.00392 -0.99937 0.03525
vn -0.0196 -0.99919 0.03528
vn -0.02076 -0.70277 -0.71111
vn 0.00392 -0.99937 0.03525
vn -0.00399 0.84233 -0.53895
vn -0.00392 0.91461 -0.40431
vn 0.1461 0.91211 -0.38302
vn 0.31855 0.68259 -0.65773
vn -0.004 0.84233 -0.53895
vn 0.1461 0.91212 -0.383
vn -0.01178 0.91456 -0.40428
vn -0.00392 0.91461 -0.40431
vn -0.00398 0.84233 -0.53895
vn -0.01198 0.84227 -0.53892
vn -0.01178 0.91456 -0.40428
vn -0.004 0.84233 -0.53895
vn 0.92965 0.36791 0.0198
vn 0.93252 0.36109 -0.00398
vn 0.53113 0.61096 0.58705
vn -0.00393 0.2877 0.95771
vn 0.00389 -0.84558 0.53383
vn 0.19308 -0.83926 0.5083
vn 0.92964 0.36793 0.01981
vn -0.00397 0.28769 0.95771
vn 0.19308 -0.83926 0.5083
vn -0.02728 -0.84526 0.53366
vn 0.0039 -0.84558 0.53383
vn -0.00388 0.2877 0.95771
vn -0.03559 0.29696 0.95423
vn -0.02726 -0.84526 0.53366
vn -0.00388 0.2877 0.95771
vn 0.00393 0.57899 0.81533
vn -0.00394 0.28769 0.95772
vn 0.92965 0.36792 0.01975
vn 0.53113 0.61098 0.58703
vn 0.00392 0.57899 0.81533
vn 0.92963 0.36797 0.01973
vn -0.03562 0.29697 0.95422
vn -0.00394 0.28769 0.95772
vn 0.00396 0.57899 0.81533
vn -0.05122 0.58716 0.80785
vn -0.03562 0.29697 0.95422
vn 0.00395 0.57899 0.81533
vn -0.94247 -0.09859 0.31941
vn -0.84446 -0.01985 -0.53525
vn -0.02079 -0.70274 -0.71115
vn -0.0196 -0.99919 0.03526
vn -0.94247 -0.09861 0.31941
vn -0.02076 -0.7028 -0.71108
vn -0.7584 0.64836 0.06679
vn -0.82561 0.31207 -0.47008
vn -0.93089 0.36529 -0.00392
vn -0.85114 0.52164 0.05883
vn -0.75841 0.64835 0.06682
vn -0.93089 0.36529 -0.00387
vn -0.93089 0.36529 -0.00393
vn -0.82561 0.31206 -0.47009
vn -0.84447 -0.01982 -0.53524
vn -0.94248 -0.09859 0.31938
vn -0.93089 0.36528 -0.00393
vn -0.84447 -0.01981 -0.53524
vn -0.03565 0.29695 0.95423
vn -0.05123 0.58714 0.80786
vn -0.93354 0.35845 -0.00394
vn 0.4943 0.79484 0.35199
vn 0.76278 0.55727 0.32805
vn 0.898 0.36791 0.2413
vn 0.86636 0.40747 0.28878
vn 0.4943 0.79486 0.35194
vn 0.89801 0.3679 0.24132
vn 0.98429 0.09884 0.14627
vn 0.86635 0.40748 0.2888
vn 0.898 0.36792 0.24132
vn 0.49431 0.79486 0.35194
vn 0.36823 0.8355 0.40785
vn 0.76279 0.55727 0.32801
vn -0.90615 0.37265 0.20006
vn -0.52012 0.76628 0.37722
vn -0.74195 0.63202 0.22374
vn -0.86928 0.44447 0.21632
vn -0.90615 0.37265 0.20005
vn -0.74195 0.63201 0.22377
vn -0.98376 0.10581 0.14501
vn -0.90616 0.37264 0.20004
vn -0.86927 0.44448 0.21634
vn -0.74195 0.63203 0.22374
vn -0.52013 0.76629 0.37719
vn -0.34395 0.87372 0.34396
vt 0.9878 1.95313
vt 0.50342 1.95313
vt 0.50342 1.84376
vt 0.9878 1.82032
vt 0.73487 1.75342
vt 0.77735 1.9961
vt 0.4878 1.84376
vt 0.4878 1.95313
vt 0.00342 1.95313
vt 0.00342 1.82032
vt 0.25684 1.75342
vt 0.21436 1.9961
vt 0.79688 0.71875
vt 0.73047 0.64062
vt 0.96094 0.64062
vt 0.96046 0.71875
vt 0.73047 0.71875
vt 0.40235 0.60986
vt 0.59375 0.60986
vt 0.59375 0.64062
vt 0.40235 0.64062
vt 0.59375 0.57812
vt 0.40235 0.57812
vt 0.73047 0.60937
vt 0.96046 0.60937
vt 0.96094 0.57812
vt 0.73047 0.57812
vt 0.69483 0.60937
vt 0.69483 0.64062
vt 0.69483 0.57812
vt 0.9961 0.60937
vt 0.9961 0.64062
vt 0.9961 0.57812
vt 0.79688 0.5
vt 0.96094 0.5
vt 0.73047 0.5
vt 0.39405 0.74658
vt 0.39405 0.64844
vt 0.4253 0.64844
vt 0.4253 0.74658
vt 0.46875 0.74658
vt 0.34717 0.6289
vt 0.34717 0.55078
vt 0.39405 0.55078
vt 0.39405 0.6289
vt 0.30029 0.55078
vt 0.30029 0.6289
vt 0.34717 0.64844
vt 0.30029 0.64844
vt 0.34717 0.74658
vt 0.30029 0.74658
vt 0.14795 0.47216
vt 0.14795 0.54248
vt 0.07813 0.54248
vt 0.07813 0.47216
vt 0.00342 0.35888
vt 0.00342 0.29248
vt 0.07813 0.3706
vt 0.07813 0.41357
vt 0.00342 0.47216
vt 0.00342 0.54248
vt 0.12842 0.29248
vt 0.12842 0.3706
vt 0.19531 0.23242
vt 0.19531 0.28906
vt 0.14795 0.28906
vt 0.10547 0.23242
vt 0.24219 0.28906
vt 0.28467 0.23242
vt 0.19531 0.17578
vt 0.10547 0.17578
vt 0.28467 0.17578
vt 0.19483 0.40136
vt 0.19483 0.47216
vt 0.14795 0.40136
vt 0.19483 0.54248
vt 0.24219 0.47216
vt 0.24219 0.40136
vt 0.24219 0.54248
vt 0.19531 0.36523
vt 0.14795 0.36523
vt 0.24219 0.36523
vt 0.10547 0.00488
vt 0.19531 0.00488
vt 0.19531 0.0581
vt 0.10547 0.0581
vt 0.28467 0.00488
vt 0.28467 0.0581
vt 0.26904 0.64844
vt 0.26904 0.74658
vt 0.22656 0.74658
vt 0.31592 0.54248
vt 0.31592 0.47216
vt 0.31592 0.3706
vt 0.38672 0.29248
vt 0.38672 0.35888
vt 0.31592 0.41357
vt 0.38672 0.47216
vt 0.38672 0.54248
vt 0.26172 0.29248
vt 0.26172 0.3706
vt 0.49854 0.40283
vt 0.49854 0.53515
vt 0.42188 0.53515
vt 0.42188 0.40283
vt 0.49854 0.3125
vt 0.42188 0.3125
vt 0.56494 0.57031
vt 0.49854 0.57031
vt 0.56494 0.53515
vt 0.56494 0.3125
vt 0.625 0.3125
vt 0.625 0.40283
vt 0.56494 0.40283
vt 0.625 0.53515
vt 0.49854 0.27343
vt 0.56494 0.27343
vt 0.69532 0.40283
vt 0.69532 0.53515
vt 0.69532 0.3125
vt 0.56592 0.26562
vt 0.48926 0.26562
vt 0.48926 0.13281
vt 0.56592 0.13281
vt 0.48926 0.04345
vt 0.56592 0.04345
vt 0.48926 0.30078
vt 0.42285 0.30078
vt 0.42285 0.26562
vt 0.3628 0.13281
vt 0.3628 0.04345
vt 0.42285 0.04345
vt 0.42285 0.13281
vt 0.3628 0.26562
vt 0.42285 0.0039
vt 0.48926 0.0039
vt 0.29297 0.13281
vt 0.29297 0.26562
vt 0.29297 0.04345
vt 0.09717 0.15283
vt 0.00342 0.15283
vt 0.00342 0.0747
vt 0.09717 0.0747
vt 0.09717 0.0039
vt 0.00342 0.0039
vt 0.79834 0.17187
vt 0.79834 0.10009
vt 0.99659 0.10009
vt 0.95655 0.17187
vt 0.95655 0.06787
vt 0.79834 0.06787
vt 0.88038 0.0039
vt 0.95655 0.0039
vt 0.79834 0.23095
vt 0.73633 0.23095
vt 0.73633 0.17187
vt 0.70606 0.17187
vt 0.70606 0.23095
vt 0.73633 0.28515
vt 0.79834 0.28515
vt 0.70606 0.28515
vt 0.95655 0.23095
vt 0.95655 0.28515
vt 0.57422 0.23095
vt 0.57422 0.17187
vt 0.57422 0.28515
vt 0.19922 0.65283
vt 0.23779 0.69678
vt 0.19922 0.74658
vt 0.12109 0.65283
vt 0.12109 0.55078
vt 0.19922 0.55078
vt 0.04297 0.55078
vt 0.04297 0.65283
vt 0.12109 0.74658
vt 0.04297 0.74658
vt 0.99659 0.36132
vt 0.79834 0.36132
vt 0.88038 0.4497
vt 0.79834 0.39355
vt 0.95655 0.39355
vt 0.95655 0.4497
vt 0.00342 0.69678
usemtl mat0
f 172/1/535 173/2/536 174/3/537
f 175/4/538 172/1/539 174/3/540
f 176/5/541 175/4/542 174/3/543
f 172/1/544 177/6/545 173/2/546
f 178/7/547 179/8/548 180/9/549
f 181/10/550 178/7/551 180/9/552
f 182/11/553 178/7/554 181/10/555
f 180/9/556 179/8/557 183/12/558
usemtl mat1
f 1/13/1 2/14/2 3/15/3
f 4/16/4 1/13/5 3/15/6
f 2/14/7 1/13/8 5/17/9
f 6/18/10 7/19/11 8/20/12
f 9/21/13 6/18/14 8/20/15
f 10/22/16 7/19/17 6/18/18
f 11/23/19 10/22/20 6/18/21
f 12/24/22 13/25/23 3/15/24
f 2/14/25 12/24/26 3/15/27
f 14/26/28 13/25/29 12/24/30
f 15/27/31 14/26/32 12/24/33
f 16/28/34 12/24/35 2/14/36
f 17/29/37 16/28/38 2/14/39
f 15/27/40 12/24/41 16/28/42
f 18/30/43 15/27/44 16/28/45
f 13/25/46 19/31/47 20/32/48
f 3/15/49 13/25/50 20/32/51
f 21/33/52 19/31/53 13/25/54
f 14/26/55 21/33/56 13/25/57
f 7/19/58 16/28/59 17/29/60
f 8/20/61 7/19/62 17/29/63
f 18/30/64 16/28/65 7/19/66
f 10/22/67 18/30/68 7/19/69
f 14/26/70 15/27/71 22/34/72
f 23/35/73 14/26/74 22/34/75
f 15/27/76 24/36/77 22/34/78
f 25/37/79 26/38/80 27/39/81
f 28/40/82 25/37/83 27/39/84
f 29/41/85 28/40/86 27/39/87
f 30/42/88 31/43/89 32/44/90
f 33/45/91 30/42/92 32/44/93
f 34/46/94 31/43/95 30/42/96
f 35/47/97 34/46/98 30/42/99
f 36/48/100 30/42/101 33/45/102
f 26/38/103 36/48/104 33/45/105
f 35/47/106 30/42/107 36/48/108
f 37/49/109 35/47/110 36/48/111
f 38/50/112 36/48/113 26/38/114
f 25/37/115 38/50/116 26/38/117
f 37/49/118 36/48/119 38/50/120
f 39/51/121 37/49/122 38/50/123
f 40/52/124 41/53/125 42/54/126
f 43/55/127 40/52/128 42/54/129
f 44/56/130 45/57/131 46/58/132
f 47/59/133 44/56/134 46/58/135
f 48/60/136 44/56/137 47/59/138
f 48/60/139 47/59/140 43/55/141
f 48/60/142 43/55/143 42/54/144
f 49/61/145 48/60/146 42/54/147
f 46/58/148 45/57/149 50/62/150
f 51/63/151 46/58/152 50/62/153
f 52/64/154 53/65/155 54/66/156
f 55/67/157 52/64/158 54/66/159
f 56/68/160 53/65/161 52/64/162
f 57/69/163 56/68/164 52/64/165
f 58/70/166 52/64/167 55/67/168
f 59/71/169 58/70/170 55/67/171
f 57/69/172 52/64/173 58/70/174
f 60/72/175 57/69/176 58/70/177
f 61/73/178 62/74/179 40/52/180
f 63/75/181 61/73/182 40/52/183
f 40/52/184 62/74/185 41/53/186
f 62/74/187 64/76/188 41/53/189
f 65/77/190 62/74/191 61/73/192
f 66/78/193 65/77/194 61/73/195
f 67/79/196 64/76/197 62/74/198
f 65/77/199 67/79/200 62/74/201
f 53/65/202 68/80/203 69/81/204
f 54/66/205 53/65/206 69/81/207
f 69/81/208 68/80/209 63/75/210
f 68/80/211 61/73/212 63/75/213
f 70/82/214 68/80/215 53/65/216
f 56/68/217 70/82/218 53/65/219
f 66/78/220 61/73/221 68/80/222
f 70/82/223 66/78/224 68/80/225
f 71/83/226 72/84/227 73/85/228
f 74/86/229 71/83/230 73/85/231
f 73/85/232 72/84/233 75/87/234
f 76/88/235 73/85/236 75/87/237
f 74/86/238 73/85/239 58/70/240
f 59/71/241 74/86/242 58/70/243
f 58/70/244 73/85/245 76/88/246
f 60/72/247 58/70/248 76/88/249
f 77/89/250 37/49/251 39/51/252
f 78/90/253 77/89/254 39/51/255
f 79/91/256 77/89/257 78/90/258
f 80/92/259 67/79/260 65/77/261
f 81/93/262 80/92/263 65/77/264
f 82/94/265 83/95/266 84/96/267
f 85/97/268 82/94/269 84/96/270
f 86/98/271 85/97/272 84/96/273
f 86/98/274 81/93/275 85/97/276
f 80/92/277 81/93/278 86/98/279
f 87/99/280 80/92/281 86/98/282
f 88/100/283 83/95/284 82/94/285
f 89/101/286 88/100/287 82/94/288
f 90/102/289 91/103/290 92/104/291
f 93/105/292 90/102/293 92/104/294
f 94/106/295 90/102/296 93/105/297
f 95/107/298 94/106/299 93/105/300
f 96/108/301 97/109/302 91/103/303
f 98/110/304 96/108/305 91/103/306
f 99/111/307 100/112/308 101/113/309
f 102/114/310 99/111/311 101/113/312
f 98/110/313 102/114/314 101/113/315
f 103/115/316 98/110/317 101/113/318
f 94/106/319 104/116/320 105/117/321
f 99/111/322 94/106/323 105/117/324
f 98/110/325 91/103/326 90/102/327
f 102/114/328 98/110/329 90/102/330
f 90/102/331 94/106/332 102/114/333
f 94/106/334 99/111/335 102/114/336
f 106/118/337 107/119/338 103/115/339
f 106/118/340 103/115/341 101/113/342
f 106/118/343 100/112/344 108/120/345
f 101/113/346 100/112/347 106/118/348
f 109/121/349 110/122/350 111/123/351
f 112/124/352 109/121/353 111/123/354
f 112/124/355 111/123/356 113/125/357
f 114/126/358 112/124/359 113/125/360
f 110/122/361 115/127/362 116/128/363
f 117/129/364 110/122/365 116/128/366
f 118/130/367 119/131/368 120/132/369
f 121/133/370 118/130/371 120/132/372
f 118/130/373 121/133/374 117/129/375
f 122/134/376 118/130/377 117/129/378
f 123/135/379 124/136/380 113/125/381
f 120/132/382 123/135/383 113/125/384
f 111/123/385 110/122/386 117/129/387
f 121/133/388 111/123/389 117/129/390
f 111/123/391 121/133/392 113/125/393
f 121/133/394 120/132/395 113/125/396
f 125/137/397 118/130/398 122/134/399
f 125/137/400 122/134/401 126/138/402
f 118/130/403 125/137/404 119/131/405
f 119/131/406 125/137/407 127/139/408
f 128/140/409 129/141/410 130/142/411
f 131/143/412 128/140/413 130/142/414
f 131/143/415 130/142/416 132/144/417
f 130/142/418 133/145/419 132/144/420
f 134/146/421 135/147/422 136/148/423
f 137/149/424 134/146/425 136/148/426
f 138/150/427 139/151/428 140/152/429
f 141/153/430 138/150/431 140/152/432
f 135/147/433 139/151/434 138/150/435
f 136/148/436 135/147/437 138/150/438
f 142/154/439 143/155/440 144/156/441
f 134/146/442 142/154/443 144/156/444
f 144/156/445 143/155/446 145/157/447
f 143/155/448 146/158/449 145/157/450
f 147/159/451 143/155/452 142/154/453
f 148/160/454 147/159/455 142/154/456
f 149/161/457 146/158/458 143/155/459
f 147/159/460 149/161/461 143/155/462
f 150/162/463 142/154/464 134/146/465
f 137/149/466 150/162/467 134/146/468
f 148/160/469 142/154/470 150/162/471
f 151/163/472 148/160/473 150/162/474
f 146/158/475 152/164/476 153/165/477
f 145/157/478 146/158/479 153/165/480
f 154/166/481 152/164/482 146/158/483
f 149/161/484 154/166/485 146/158/486
f 155/167/487 156/168/488 157/169/489
f 158/170/490 159/171/491 160/172/492
f 155/167/493 158/170/494 160/172/495
f 161/173/496 159/171/497 158/170/498
f 162/174/499 161/173/500 158/170/501
f 163/175/502 158/170/503 155/167/504
f 157/169/505 163/175/506 155/167/507
f 162/174/508 158/170/509 163/175/510
f 164/176/511 162/174/512 163/175/513
f 165/177/514 166/178/515 148/160/516
f 151/163/517 165/177/518 148/160/519
f 167/179/520 168/180/521 169/181/522
f 170/182/523 167/179/524 169/181/525
f 169/181/526 168/180/527 166/178/528
f 165/177/529 169/181/530 166/178/531
f 162/174/532 164/176/533 171/183/534
# Vertices: 183, normals: 558, texture coordinates: 183, faces: 186

